<?xml version="1.0" encoding="iso-8859-1"?>
<!-- Generator: Adobe Illustrator 18.0.0, SVG Export Plug-In . SVG Version: 6.00 Build 0)  -->
<!DOCTYPE svg PUBLIC "-//W3C//DTD SVG 1.1//EN" "http://www.w3.org/Graphics/SVG/1.1/DTD/svg11.dtd">
<svg version="1.1" fill="#fff" id="Capa_1" xmlns="http://www.w3.org/2000/svg" xmlns:xlink="http://www.w3.org/1999/xlink" x="0px" y="0px"
	 viewBox="0 0 489.42 489.42" style="enable-background:new 0 0 489.42 489.42;" xml:space="preserve">
<path d="M416.435,0h-49.801c-18.201,0-32.963,14.753-32.963,32.963v153.883H155.748V32.963c0-18.21-14.76-32.963-32.963-32.963
	H72.982C54.781,0,40.02,14.753,40.02,32.963v423.494c0,18.209,14.761,32.963,32.962,32.963h49.803
	c18.203,0,32.963-14.754,32.963-32.963V302.574h177.924v153.883c0,18.209,14.762,32.963,32.963,32.963h49.801
	c18.203,0,32.965-14.754,32.965-32.963V32.963C449.4,14.753,434.638,0,416.435,0z"/>
<g>
</g>
<g>
</g>
<g>
</g>
<g>
</g>
<g>
</g>
<g>
</g>
<g>
</g>
<g>
</g>
<g>
</g>
<g>
</g>
<g>
</g>
<g>
</g>
<g>
</g>
<g>
</g>
<g>
</g>
</svg>
