<svg xmlns="http://www.w3.org/2000/svg" xmlns:xlink="http://www.w3.org/1999/xlink" viewBox="0 0 368.63 45.96"><defs><style>.cls-1{fill:url(#linear-gradient);}.cls-2{fill:url(#linear-gradient-2);}.cls-3{fill:url(#linear-gradient-3);}.cls-4{fill:url(#linear-gradient-4);}.cls-5{fill:url(#linear-gradient-5);}.cls-6{fill:url(#linear-gradient-6);}.cls-7{fill:url(#linear-gradient-7);}.cls-8{fill:url(#linear-gradient-8);}.cls-9{fill:url(#linear-gradient-9);}.cls-10{fill:url(#linear-gradient-10);}.cls-11{fill:url(#linear-gradient-11);}.cls-12{fill:url(#linear-gradient-12);}.cls-13{fill:url(#linear-gradient-13);}.cls-14{fill:url(#linear-gradient-14);}.cls-15{fill:url(#linear-gradient-15);}.cls-16{fill:url(#linear-gradient-16);}</style><linearGradient id="linear-gradient" x1="355.3" y1="4.15" x2="368.63" y2="4.15" gradientUnits="userSpaceOnUse"><stop offset="0" stop-color="#fef275"/><stop offset="1" stop-color="#bda32b"/></linearGradient><linearGradient id="linear-gradient-2" x1="353.21" y1="4.19" x2="355.66" y2="4.19" xlink:href="#linear-gradient"/><linearGradient id="linear-gradient-3" x1="343.8" y1="4.23" x2="346.25" y2="4.23" xlink:href="#linear-gradient"/><linearGradient id="linear-gradient-4" x1="345.53" y1="4.21" x2="353.88" y2="4.21" xlink:href="#linear-gradient"/><linearGradient id="linear-gradient-5" x1="231.75" y1="4.18" x2="240.43" y2="4.18" xlink:href="#linear-gradient"/><linearGradient id="linear-gradient-6" x1="240.19" y1="4.21" x2="241.79" y2="4.21" xlink:href="#linear-gradient"/><linearGradient id="linear-gradient-7" x1="241.79" y1="4.23" x2="345.02" y2="4.23" xlink:href="#linear-gradient"/><linearGradient id="linear-gradient-8" x1="143.86" y1="22.98" x2="214.97" y2="22.98" xlink:href="#linear-gradient"/><linearGradient id="linear-gradient-9" x1="154.22" y1="22.98" x2="225.33" y2="22.98" xlink:href="#linear-gradient"/><linearGradient id="linear-gradient-10" x1="0" y1="4.15" x2="13.33" y2="4.15" xlink:href="#linear-gradient"/><linearGradient id="linear-gradient-11" x1="12.97" y1="4.19" x2="15.42" y2="4.19" xlink:href="#linear-gradient"/><linearGradient id="linear-gradient-12" x1="22.38" y1="4.23" x2="24.83" y2="4.23" xlink:href="#linear-gradient"/><linearGradient id="linear-gradient-13" x1="14.75" y1="4.21" x2="23.1" y2="4.21" xlink:href="#linear-gradient"/><linearGradient id="linear-gradient-14" x1="128.2" y1="4.18" x2="136.88" y2="4.18" xlink:href="#linear-gradient"/><linearGradient id="linear-gradient-15" x1="126.84" y1="4.21" x2="128.43" y2="4.21" xlink:href="#linear-gradient"/><linearGradient id="linear-gradient-16" x1="23.6" y1="4.23" x2="126.84" y2="4.23" xlink:href="#linear-gradient"/></defs><title>Asset 1</title><g id="Layer_2" data-name="Layer 2"><g id="object"><path class="cls-1" d="M368.63,4.09s-1.71-9.24-13.33.06C355.3,4.15,366.26,13.55,368.63,4.09ZM366,4.15a.44.44,0,0,1-.88,0,.44.44,0,0,1,.88,0Zm-7.77,0s.75-2.79,6.08,0C364.26,4.14,359.29,7,358.18,4.17Z"/><path class="cls-2" d="M354.44,5.42a1.23,1.23,0,0,1-1.23-1.22h0A1.21,1.21,0,0,1,354.43,3h0a1.23,1.23,0,0,1,1.23,1.22h0a1.24,1.24,0,0,1-1.22,1.23Z"/><path class="cls-3" d="M345,5.46a1.23,1.23,0,0,1-1.23-1.22h0A1.21,1.21,0,0,1,345,3h0a1.23,1.23,0,0,1,1.23,1.22h0A1.24,1.24,0,0,1,345,5.46Z"/><path class="cls-4" d="M349.73,7.46s4.19-3.25,4.15-3.26S349.7,1,349.7,1c-.49,1.06-4.18,3.25-4.17,3.26S349.23,6.4,349.73,7.46Z"/><path class="cls-5" d="M240.43,4.18c-7.57-6.06-8.68,0-8.68,0C233.29,10.3,240.43,4.18,240.43,4.18Zm-6.65-.29a.29.29,0,1,1-.29.29A.29.29,0,0,1,233.78,3.89Zm.81.28c3.47-1.8,4,0,4,0C237.83,6,234.59,4.17,234.59,4.17Z"/><path class="cls-6" d="M241,5a.79.79,0,0,0,.8-.79h0a.8.8,0,0,0-.8-.8h0a.8.8,0,0,0-.8.79h0a.8.8,0,0,0,.8.8Z"/><rect class="cls-7" x="241.79" y="3.8" width="103.23" height="0.87"/><path class="cls-8" d="M184.58,46l-.25-.15a2.33,2.33,0,0,1-.29-.19,3.2,3.2,0,0,1-.36-.32,3.69,3.69,0,0,1-.75-1.11,5.66,5.66,0,0,1-.45-1.76,13.54,13.54,0,0,1,.56-5,19.68,19.68,0,0,1,1.09-2.94,13.38,13.38,0,0,1,.81-1.48l1-1.54a62.86,62.86,0,0,1,4.74-6.6,29.32,29.32,0,0,1,3.14-3.17c.59-.49,1.2-1,1.84-1.4a17.72,17.72,0,0,1,2.05-1.15,13.28,13.28,0,0,1,2.23-.84c.39-.11.79-.18,1.18-.27s.8-.12,1.23-.15a17.89,17.89,0,0,1,5.06.14,10.55,10.55,0,0,1,2.42.72,6.59,6.59,0,0,1,2.07,1.34,4.35,4.35,0,0,1,1.24,2,3.24,3.24,0,0,1-.17,2.21,1.66,1.66,0,0,1-.18.35c-.07.11-.13.23-.21.34a4.31,4.31,0,0,1-.54.6,6.09,6.09,0,0,1-1.36,1,10.26,10.26,0,0,1-3.34.94,19,19,0,0,1-3.54,0,15,15,0,0,1-3.35-.76,38.51,38.51,0,0,1-6.17-2.84c-1.94-1.08-3.77-2.22-5.51-3.34-3.48-2.25-6.61-4.42-9.39-6.3s-5.21-3.5-7.21-4.77-4.33-3-7.24-4.75a47.64,47.64,0,0,0-4.8-2.5,24,24,0,0,0-5.8-1.86A13.55,13.55,0,0,0,151,.2a9.7,9.7,0,0,0-3.43.9c-.27.12-.53.29-.8.43l-.77.52c-.24.2-.48.38-.72.6a5,5,0,0,0-.67.77,3.92,3.92,0,0,0-.73,2,4.86,4.86,0,0,0,.31,2.08,9,9,0,0,0,2.28,3.24A12.05,12.05,0,0,0,149.75,13a17.3,17.3,0,0,0,1.84.75c.32.11.64.18,1,.28l.48.13.49.11,1,.19,1,.14.5.07.5,0,1,.07a50.7,50.7,0,0,0,11.29-.94c.9-.16,1.78-.33,2.65-.51l.66-.13.68-.17c.45-.13.88-.26,1.3-.42,1.68-.6,3.24-1.3,4.76-2,3-1.41,5.83-2.83,8.48-4.1s5.14-2.41,7.45-3.35A48.88,48.88,0,0,1,201.12,1a17.52,17.52,0,0,1,5-.62,7,7,0,0,1,3.07.78,2.94,2.94,0,0,1,.41.25,2.84,2.84,0,0,1,.29.2l.22.18-.21-.19c-.07-.07-.16-.14-.27-.23s-.24-.18-.4-.28a7.21,7.21,0,0,0-3.09-1A17.68,17.68,0,0,0,201,.42a46.6,46.6,0,0,0-6.54,1.89c-2.38.85-4.93,1.9-7.64,3.09s-5.56,2.52-8.59,3.84c-1.51.65-3.06,1.32-4.66,1.85q-.6.21-1.2.36l-.6.14-.64.12c-.87.16-1.74.32-2.63.46a51.86,51.86,0,0,1-10.92.85l-.94-.07-.47,0-.47-.06-.92-.12-.9-.18-.45-.09-.44-.12c-.29-.09-.59-.15-.87-.25a14.93,14.93,0,0,1-1.65-.66,10.64,10.64,0,0,1-2.88-1.89,7.42,7.42,0,0,1-1.92-2.61,3.35,3.35,0,0,1-.25-1.4,2.39,2.39,0,0,1,.44-1.25,2.87,2.87,0,0,1,.45-.54c.18-.18.4-.35.59-.52s.42-.31.64-.45a6.38,6.38,0,0,1,.67-.38,10,10,0,0,1,5.93-.77,24.31,24.31,0,0,1,5.58,1.58,51.23,51.23,0,0,1,4.8,2.26c2.95,1.57,5.42,3.11,7.42,4.37s4.27,3.1,7,5.11,5.73,4.29,9.17,6.67c1.72,1.18,3.54,2.38,5.49,3.54a38.9,38.9,0,0,0,6.38,3.09,16.27,16.27,0,0,0,3.7.89,20.08,20.08,0,0,0,3.88,0,11.74,11.74,0,0,0,3.93-1.09,7.74,7.74,0,0,0,1.78-1.25A5.93,5.93,0,0,0,214,26c.11-.15.21-.32.31-.49a2.71,2.71,0,0,0,.26-.51,5,5,0,0,0,.25-3.36,6.06,6.06,0,0,0-1.72-2.74,8.31,8.31,0,0,0-2.57-1.64,11.54,11.54,0,0,0-2.8-.8,19.33,19.33,0,0,0-5.52-.08c-.44,0-.9.12-1.34.2s-.89.19-1.31.33a14.67,14.67,0,0,0-2.46,1,18.37,18.37,0,0,0-2.19,1.31A22.78,22.78,0,0,0,193,20.73a27.39,27.39,0,0,0-3.18,3.42A58.07,58.07,0,0,0,185.21,31l-.93,1.58a13.28,13.28,0,0,0-.79,1.61,19.58,19.58,0,0,0-1,3.09,13.68,13.68,0,0,0-.3,5.14,5.86,5.86,0,0,0,.58,1.8,3.77,3.77,0,0,0,.84,1.1,3,3,0,0,0,.39.29l.3.18Z"/><path class="cls-9" d="M184.61,46l.26-.13a1.69,1.69,0,0,0,.3-.18,3,3,0,0,0,.39-.29,3.77,3.77,0,0,0,.84-1.1,5.86,5.86,0,0,0,.58-1.8,13.68,13.68,0,0,0-.3-5.14,19.58,19.58,0,0,0-1-3.09,13.28,13.28,0,0,0-.79-1.61L184,31a58.07,58.07,0,0,0-4.57-6.89,27.29,27.29,0,0,0-3.17-3.42,24.68,24.68,0,0,0-1.93-1.55,18.37,18.37,0,0,0-2.19-1.31,14.34,14.34,0,0,0-2.46-1,13.2,13.2,0,0,0-1.31-.33c-.44-.08-.89-.16-1.34-.2a19.33,19.33,0,0,0-5.52.08,11.54,11.54,0,0,0-2.8.8,8.31,8.31,0,0,0-2.57,1.64,6,6,0,0,0-1.71,2.74,4.93,4.93,0,0,0,.24,3.36,2.71,2.71,0,0,0,.26.51c.1.17.2.34.31.49a6,6,0,0,0,.75.84,7.68,7.68,0,0,0,1.77,1.25,11.74,11.74,0,0,0,3.93,1.09,20.08,20.08,0,0,0,3.88,0,16.27,16.27,0,0,0,3.7-.89,38.9,38.9,0,0,0,6.38-3.09c2-1.16,3.77-2.36,5.49-3.54,3.44-2.38,6.48-4.67,9.17-6.67s5-3.73,7-5.11,4.47-2.8,7.42-4.37a52.45,52.45,0,0,1,4.8-2.26,24.31,24.31,0,0,1,5.58-1.58,10,10,0,0,1,5.93.77,5.51,5.51,0,0,1,.67.38c.22.14.43.3.64.45s.41.34.59.52a2.87,2.87,0,0,1,.45.54,2.39,2.39,0,0,1,.44,1.25,3.35,3.35,0,0,1-.25,1.4,7.51,7.51,0,0,1-1.91,2.61,10.7,10.7,0,0,1-2.89,1.89,14.93,14.93,0,0,1-1.65.66c-.28.1-.58.16-.87.25l-.44.12-.45.09-.9.18-.92.12-.47.06-.46,0-.94.07a52,52,0,0,1-10.93-.85c-.88-.14-1.76-.3-2.63-.46l-.64-.12-.59-.14c-.41-.1-.81-.22-1.21-.36-1.6-.53-3.15-1.2-4.66-1.85-3-1.32-5.88-2.66-8.59-3.84s-5.26-2.24-7.63-3.09A47.09,47.09,0,0,0,168.19.42a17.66,17.66,0,0,0-5.14-.36A7.2,7.2,0,0,0,160,1l-.41.28c-.11.09-.2.16-.27.23l-.21.19.23-.18a1.87,1.87,0,0,1,.28-.2,2.94,2.94,0,0,1,.41-.25,7,7,0,0,1,3.07-.78,17.52,17.52,0,0,1,5,.62,48.38,48.38,0,0,1,6.36,2.16c2.31.94,4.8,2.08,7.45,3.35s5.47,2.69,8.48,4.1c1.52.7,3.08,1.4,4.76,2,.42.16.85.29,1.3.42l.68.17.66.13c.87.18,1.75.35,2.65.51a50.7,50.7,0,0,0,11.29.94l1-.07.5,0,.5-.07,1-.14,1-.19.49-.11.48-.13c.32-.1.64-.17,1-.28a18.36,18.36,0,0,0,1.85-.75,12.16,12.16,0,0,0,3.27-2.21A9,9,0,0,0,225,7.5a4.86,4.86,0,0,0,.32-2.08,4,4,0,0,0-.74-2,5,5,0,0,0-.67-.77c-.24-.22-.48-.4-.72-.6l-.76-.52c-.28-.14-.53-.31-.81-.43a9.64,9.64,0,0,0-3.43-.9,13.55,13.55,0,0,0-3.33.18,24,24,0,0,0-5.8,1.86,46.39,46.39,0,0,0-4.79,2.5C201.36,6.45,199,8.12,197,9.49s-4.43,2.88-7.21,4.77-5.9,4-9.38,6.3c-1.74,1.12-3.58,2.26-5.52,3.34a38.51,38.51,0,0,1-6.17,2.84,15,15,0,0,1-3.35.76,19,19,0,0,1-3.54,0,10.26,10.26,0,0,1-3.34-.94,6.09,6.09,0,0,1-1.36-1,4.31,4.31,0,0,1-.54-.6c-.08-.11-.14-.23-.21-.34a1.66,1.66,0,0,1-.18-.35,3.3,3.3,0,0,1-.17-2.21,4.35,4.35,0,0,1,1.24-2,6.59,6.59,0,0,1,2.07-1.34,10.55,10.55,0,0,1,2.42-.72,18,18,0,0,1,5.07-.14c.42,0,.82.09,1.22.15s.79.16,1.18.27a13.28,13.28,0,0,1,2.23.84,17.72,17.72,0,0,1,2.05,1.15c.64.44,1.26.91,1.84,1.4a28.43,28.43,0,0,1,3.14,3.17,60.07,60.07,0,0,1,4.74,6.6l1,1.54a11.91,11.91,0,0,1,.81,1.48,18.63,18.63,0,0,1,1.09,2.94,13.33,13.33,0,0,1,.56,5,5.66,5.66,0,0,1-.45,1.76,3.69,3.69,0,0,1-.75,1.11,2.51,2.51,0,0,1-.36.32,2.33,2.33,0,0,1-.29.19Z"/><path class="cls-10" d="M13.33,4.15C1.7-5.15,0,4.09,0,4.09,2.37,13.55,13.33,4.15,13.33,4.15ZM3.12,3.71a.44.44,0,1,1-.45.44A.43.43,0,0,1,3.12,3.71Zm1.24.43c5.34-2.76,6.09,0,6.09,0C9.34,7,4.36,4.14,4.36,4.14Z"/><path class="cls-11" d="M14.19,5.42A1.23,1.23,0,0,0,15.42,4.2h0A1.22,1.22,0,0,0,14.2,3h0A1.22,1.22,0,0,0,13,4.19h0a1.23,1.23,0,0,0,1.22,1.23Z"/><path class="cls-12" d="M23.6,5.46a1.23,1.23,0,0,0,1.23-1.22h0A1.22,1.22,0,0,0,23.61,3h0a1.21,1.21,0,0,0-1.23,1.22h0A1.23,1.23,0,0,0,23.6,5.46Z"/><path class="cls-13" d="M18.9,7.46S14.71,4.21,14.75,4.2,18.93,1,18.93,1C19.41,2,23.1,4.22,23.1,4.23S19.4,6.4,18.9,7.46Z"/><path class="cls-14" d="M136.88,4.14s-1.11-6-8.68,0C128.2,4.18,135.33,10.3,136.88,4.14Zm-1.74,0a.29.29,0,1,1-.29-.29A.29.29,0,0,1,135.14,4.18Zm-5.07,0s.49-1.82,4,0C134,4.17,130.8,6,130.07,4.19Z"/><path class="cls-15" d="M127.64,5a.79.79,0,0,1-.8-.79h0a.79.79,0,0,1,.79-.8h0a.79.79,0,0,1,.8.79h0a.79.79,0,0,1-.79.8Z"/><rect class="cls-16" x="23.6" y="3.8" width="103.23" height="0.87"/></g></g></svg>