<svg xmlns="http://www.w3.org/2000/svg" xmlns:xlink="http://www.w3.org/1999/xlink" viewBox="0 0 180.83 62.7"><defs><style>.cls-1{fill:url(#linear-gradient);}.cls-2{fill:url(#linear-gradient-2);}.cls-3{fill:url(#linear-gradient-3);}.cls-4{fill:url(#linear-gradient-4);}.cls-5{fill:url(#linear-gradient-5);}</style><linearGradient id="linear-gradient" y1="21.09" x2="180.83" y2="21.09" gradientUnits="userSpaceOnUse"><stop offset="0" stop-color="#fef275"/><stop offset="1" stop-color="#bda32b"/></linearGradient><linearGradient id="linear-gradient-2" x1="20.43" y1="54.47" x2="31.92" y2="54.47" xlink:href="#linear-gradient"/><linearGradient id="linear-gradient-3" x1="35.66" y1="53.68" x2="40.66" y2="53.68" xlink:href="#linear-gradient"/><linearGradient id="linear-gradient-4" x1="15.07" y1="49.33" x2="25.14" y2="49.33" xlink:href="#linear-gradient"/><linearGradient id="linear-gradient-5" x1="66.42" y1="6.69" x2="73.82" y2="6.69" xlink:href="#linear-gradient"/></defs><title>Asset 2</title><g id="Layer_2" data-name="Layer 2"><g id="object"><path class="cls-1" d="M134.59,36.29a200.48,200.48,0,0,1-23.1-3.71c-9.44-2-20.21-4.91-31.17-8.25-5.48-1.66-11-3.44-16.49-5.22l-8.14-2.65c-2.69-.87-5.37-1.73-8-2.5s-5.17-1.59-7.7-2.32-5-1.4-7.44-1.93a60.25,60.25,0,0,0-7.08-1.16,36.34,36.34,0,0,0-6.57-.1,24,24,0,0,0-6.54,1.06,18.45,18.45,0,0,0-6.46,3.65l-.71.68-.36.34-.32.37-.66.75c-.22.25-.41.52-.62.78A18.46,18.46,0,0,0,1.1,19.61,12.06,12.06,0,0,0,0,23.89a10,10,0,0,0,.88,4.57,12.33,12.33,0,0,0,2.76,3.76,18.54,18.54,0,0,0,3.69,2.69A30,30,0,0,0,15.81,38a45.56,45.56,0,0,0,8.94,1c1.5,0,3,0,4.49-.08s3-.22,4.44-.41a91.24,91.24,0,0,0,16.81-3.92,155.85,155.85,0,0,0,14.73-5.71c1.13-.5,2.23-1,3.3-1.49l1.6-.74L71.68,26c2.09-1,4-2.08,5.77-3.1,3.53-2.06,6.49-4,8.89-5.47,3.26-2.07,6.41-4.07,9.49-5.86a77.3,77.3,0,0,1,9-4.61,43.31,43.31,0,0,1,4.35-1.58l1.06-.3,1-.26.26-.06.22,0,.46-.08c.32,0,.64-.08,1-.11a26.3,26.3,0,0,1,4,0c1.3.09,2.55.25,3.74.45a35.18,35.18,0,0,1,6.27,1.61,11.57,11.57,0,0,1,4,2.24A3.13,3.13,0,0,1,132,10a2.75,2.75,0,0,1,.13,1.07c0,.33-.08.6-.09.8s0,.34.07.39.21,0,.39-.1a2.24,2.24,0,0,0,.65-.72,3.14,3.14,0,0,0,.44-1.64,4.31,4.31,0,0,0-.7-2.24,8.57,8.57,0,0,0-1.82-2,16.73,16.73,0,0,0-2.54-1.69,30.48,30.48,0,0,0-6.72-2.61,39,39,0,0,0-4.1-.85A28.31,28.31,0,0,0,113,0c-.41,0-.84,0-1.28.07-.21,0-.44,0-.67.07l-.34,0-.3.06c-.41.07-.82.14-1.23.23L108,.75a46.61,46.61,0,0,0-4.93,1.54,71.62,71.62,0,0,0-9.83,4.64c-3.25,1.8-6.5,3.82-9.77,5.9-2.41,1.52-5.33,3.43-8.69,5.46-1.68,1-3.48,2.05-5.39,3l-1.49.74-1.54.76-3.2,1.54C58.78,26.41,54,28.48,49,30.28a89.21,89.21,0,0,1-15.89,4.24c-1.38.23-2.77.39-4.16.53s-2.79.21-4.18.22a42.33,42.33,0,0,1-8.28-.66,29.09,29.09,0,0,1-4-1,23.37,23.37,0,0,1-3.69-1.5A15.59,15.59,0,0,1,5.65,30a9.34,9.34,0,0,1-2.23-2.78,6.52,6.52,0,0,1-.58-1.6,5.77,5.77,0,0,1-.15-.83c0-.14,0-.28,0-.43a2,2,0,0,1,0-.42,9.5,9.5,0,0,1,.71-3.4,16.83,16.83,0,0,1,1.72-3.14,19.29,19.29,0,0,1,2.25-2.7,16.76,16.76,0,0,1,5.61-3.52,22.85,22.85,0,0,1,6-1.29,37,37,0,0,1,6.26.41A59.28,59.28,0,0,1,32,11.78c2.34.62,4.74,1.38,7.2,2.21s5,1.75,7.59,2.64C52,18.38,57.29,20.4,62.7,22.38s10.91,4,16.37,5.82c10.93,3.73,21.73,7,31.3,9.27a173.8,173.8,0,0,0,23.7,4.19,103,103,0,0,0,11.55.5,67.55,67.55,0,0,0,10.85-1,42.66,42.66,0,0,0,9.6-2.89,29,29,0,0,0,7.47-4.78,23.52,23.52,0,0,0,4.63-5.68l.73-1.37.57-1.31c.09-.21.18-.41.25-.61s.14-.41.2-.61l.35-1.12c.06-.18.1-.35.14-.52s.07-.34.1-.5q.11-.48.18-.9c0-.14.05-.27.07-.4l0-.38c0-.24,0-.45,0-.65,0-.78-.06-1.2-.24-1.24s-.46.3-.81,1c-.09.17-.19.35-.29.56a3,3,0,0,1-.15.32l-.18.35c-.13.23-.26.49-.4.76l-.21.43c-.07.14-.14.29-.23.44s-.35.61-.53.94l-.28.5c-.1.17-.22.34-.33.51l-.7,1.07-.82,1.1a23.3,23.3,0,0,1-4.54,4.4,27.38,27.38,0,0,1-6.75,3.59,41.44,41.44,0,0,1-8.71,2.13,72.07,72.07,0,0,1-10.09.66C142,36.87,138.35,36.66,134.59,36.29Z"/><path class="cls-2" d="M20.69,62.21a2.37,2.37,0,0,1,.16-2.39,13.52,13.52,0,0,1,2.2-3.12l.43-.44.54-.55q.3-.28.63-.63c.21-.23.45-.46.68-.71A44.21,44.21,0,0,0,28.24,51c1.86-2.4,3.27-4.83,3.59-4.72.12,0,.12.77,0,1.88a25.73,25.73,0,0,1-1,4.18,25.59,25.59,0,0,1-2,4.6c-.19.36-.39.68-.58,1s-.38.61-.57.87-.36.51-.53.73-.33.4-.47.55a8.7,8.7,0,0,1-3.6,2.46C22,62.85,21.1,62.75,20.69,62.21Z"/><path class="cls-3" d="M37.59,59.36A2.18,2.18,0,0,1,36,58.1a4,4,0,0,1-.32-2.41,14.91,14.91,0,0,1,.53-1.83,19.12,19.12,0,0,0,.65-2.38c.33-1.67.28-3.4.58-3.51s1.48,1.15,2.31,3.12a11.79,11.79,0,0,1,.79,3.1,8.75,8.75,0,0,1,0,2.28,3.86,3.86,0,0,1-1.12,2.23A2.23,2.23,0,0,1,37.59,59.36Z"/><path class="cls-4" d="M15.49,51.81a2.32,2.32,0,0,1-.35-1.94,3.63,3.63,0,0,1,1.35-2,8.72,8.72,0,0,1,1.92-1,11.4,11.4,0,0,1,3-.78c.26,0,.51-.05.77-.05s.5,0,.73,0l.66.1a3.77,3.77,0,0,1,.56.15,2.63,2.63,0,0,1,.77.37c.18.12.26.22.25.3s-.11.15-.28.25-.4.19-.67.35a8.59,8.59,0,0,0-1.75,1.22,21.8,21.8,0,0,0-1.65,1.69,12.48,12.48,0,0,1-1.28,1.31,3.89,3.89,0,0,1-2.2.81A2.17,2.17,0,0,1,15.49,51.81Z"/><path class="cls-5" d="M73.82,6.69A3.7,3.7,0,1,1,70.12,3,3.7,3.7,0,0,1,73.82,6.69Z"/></g></g></svg>