<svg xmlns="http://www.w3.org/2000/svg" xmlns:xlink="http://www.w3.org/1999/xlink" viewBox="0 0 55.17 52.1"><defs><style>.cls-1{fill:url(#linear-gradient);}.cls-2{fill:url(#linear-gradient-2);}.cls-3{fill:url(#linear-gradient-3);}.cls-4{fill:url(#linear-gradient-4);}.cls-5{fill:url(#linear-gradient-5);}.cls-6{fill:url(#linear-gradient-6);}</style><linearGradient id="linear-gradient" x1="34.62" y1="25.59" x2="55.17" y2="25.59" gradientUnits="userSpaceOnUse"><stop offset="0" stop-color="#fef275"/><stop offset="1" stop-color="#bda32b"/></linearGradient><linearGradient id="linear-gradient-2" x1="19.58" y1="18.6" x2="36" y2="18.6" xlink:href="#linear-gradient"/><linearGradient id="linear-gradient-3" x1="0" y1="25.59" x2="20.54" y2="25.59" xlink:href="#linear-gradient"/><linearGradient id="linear-gradient-4" x1="25.13" y1="45.86" x2="30.46" y2="45.86" xlink:href="#linear-gradient"/><linearGradient id="linear-gradient-5" x1="30.9" y1="43.14" x2="38.34" y2="43.14" xlink:href="#linear-gradient"/><linearGradient id="linear-gradient-6" x1="16.49" y1="43.14" x2="24.6" y2="43.14" xlink:href="#linear-gradient"/></defs><title>Asset 1</title><g id="Layer_2" data-name="Layer 2"><g id="object"><path class="cls-1" d="M54,23.87a2,2,0,0,0,1.11-1.38,4.26,4.26,0,0,0-.36-2.74,7.07,7.07,0,0,0-2.92-3.07,8.88,8.88,0,0,0-5-1.13,10.56,10.56,0,0,0-3.24.78A12.8,12.8,0,0,0,40,18.52a14.85,14.85,0,0,0-2.9,3.41,16.44,16.44,0,0,0-1.77,4,18,18,0,0,0-.65,3.82c0,.59,0,1.15,0,1.67s.07,1,.13,1.45.14.83.21,1.18.18.64.26.88c.17.48.33.74.46.74s.28-.26.47-.71.44-1.13.72-1.85c.15-.37.33-.77.51-1.19s.41-.85.63-1.3A19.61,19.61,0,0,1,39.7,28a13.12,13.12,0,0,1,2.14-2.14A9.82,9.82,0,0,1,44.1,24.5,8,8,0,0,1,46,23.94c.14,0,.27,0,.39-.05l.34,0a1.36,1.36,0,0,0,.29,0,1,1,0,0,0,.24,0c.6,0,1.09-.08,1.57-.1a9.52,9.52,0,0,1,1.58,0C51.6,23.89,52.9,24.33,54,23.87Z"/><path class="cls-2" d="M36,14.26c-3.21,7.3-4.07,17.53-4.18,18.88,0,.09-.05.15-.11.15l-3.14,3.55a1,1,0,0,1-1.56,0l-3.14-3.55c-.06,0-.11-.06-.11-.15-.11-1.35-.83-10.8-4.18-18.88C19.55,14.2,26,2.61,27.5.18a.32.32,0,0,1,.58,0C29.54,2.61,36,14.2,36,14.26Z"/><path class="cls-3" d="M1.2,23.87A2,2,0,0,1,.1,22.49a4.13,4.13,0,0,1,.36-2.74,7,7,0,0,1,2.92-3.07,8.84,8.84,0,0,1,5-1.13,10.63,10.63,0,0,1,3.24.78,12.94,12.94,0,0,1,3.55,2.19,14.81,14.81,0,0,1,2.89,3.41,16.48,16.48,0,0,1,1.78,4,18.58,18.58,0,0,1,.64,3.82c0,.59,0,1.15,0,1.67s-.06,1-.12,1.45-.15.83-.22,1.18a5.88,5.88,0,0,1-.26.88c-.17.48-.32.74-.46.74s-.27-.26-.46-.71l-.72-1.85c-.15-.37-.34-.77-.51-1.19s-.41-.85-.64-1.3A18.56,18.56,0,0,0,15.47,28a13.12,13.12,0,0,0-2.14-2.14,10.26,10.26,0,0,0-2.26-1.37,8,8,0,0,0-1.94-.56c-.13,0-.26,0-.38-.05l-.34,0a1.36,1.36,0,0,1-.29,0,1,1,0,0,1-.25,0c-.6,0-1.08-.08-1.56-.1a9.64,9.64,0,0,0-1.59,0C3.57,23.89,2.27,24.33,1.2,23.87Z"/><path class="cls-4" d="M27.72,39.66s-5.84,12.42,0,12.44S28.07,38.92,27.72,39.66Z"/><path class="cls-5" d="M30.9,39.69s3.91,9.52,6.88,6.29S30.67,39.13,30.9,39.69Z"/><path class="cls-6" d="M24.55,40.05s-10.14,1.68-7.67,5.3S25.16,40,24.55,40.05Z"/></g></g></svg>