<?xml version="1.0" encoding="utf-8"?>
<!-- Generator: Adobe Illustrator 23.0.1, SVG Export Plug-In . SVG Version: 6.00 Build 0)  -->
<svg version="1.1" xmlns="http://www.w3.org/2000/svg" xmlns:xlink="http://www.w3.org/1999/xlink" x="0px" y="0px"
	 viewBox="0 0 500 500" style="enable-background:new 0 0 500 500;" xml:space="preserve">
<style type="text/css">
	.st0{fill:#1A1A1A;}
	.st1{fill:#BD1B52;}
	.st2{fill:#1F6BAB;}
	.st3{fill:#B87613;}
	.st4{fill:#298F2E;}
	.st5{fill:url(#SVGID_1_);}
	.st6{fill:url(#SVGID_2_);}
	.st7{fill:url(#SVGID_3_);}
	.st8{fill:url(#SVGID_4_);}
	.st9{fill:url(#SVGID_5_);}
	.st10{fill:url(#SVGID_6_);}
	.st11{fill:url(#SVGID_7_);}
	.st12{fill:url(#SVGID_8_);}
	.st13{fill:url(#SVGID_9_);}
	.st14{fill:url(#SVGID_10_);}
	.st15{fill:url(#SVGID_11_);}
	.st16{fill:url(#SVGID_12_);}
	.st17{fill:url(#SVGID_13_);}
	.st18{fill:url(#SVGID_14_);}
	.st19{fill:none;stroke:#FFFFFF;stroke-width:2;stroke-miterlimit:10;}
	.st20{fill:none;stroke:#FFFFFF;stroke-width:2;stroke-linecap:round;stroke-linejoin:round;stroke-miterlimit:10;}
	.st21{fill:url(#SVGID_15_);}
	.st22{fill:#1C1D21;}
</style>
<g id="Background">
	<rect class="st0" width="500" height="500"/>
</g>
<g id="Objects">
	<g>
		<g>
			<g>
				<g>
					<path class="st1" d="M305.4,162.7c-8.7,8.7-22.9,8.7-31.6,0c-8.7-8.7-8.7-22.9,0-31.6c8.7-8.7,22.9-8.7,31.6,0
						C314.1,139.9,314.1,154,305.4,162.7z"/>
					<path class="st2" d="M226.8,241.3c-8.7,8.7-22.9,8.7-31.6,0c-8.7-8.7-8.7-22.9,0-31.6c8.7-8.7,22.9-8.7,31.6,0
						C235.5,218.4,235.5,232.6,226.8,241.3z"/>
				</g>
				<g>
					
						<ellipse transform="matrix(0.7859 -0.6184 0.6184 0.7859 -77.4428 227.3591)" class="st3" cx="289.6" cy="225.5" rx="22.3" ry="22.3"/>
					<path class="st4" d="M195.2,162.7c-8.7-8.7-8.7-22.9,0-31.6s22.9-8.7,31.6,0c8.7,8.7,8.7,22.9,0,31.6
						C218.1,171.5,203.9,171.5,195.2,162.7z"/>
				</g>
			</g>
			<g>
				<path d="M259.4,176.5v-17.7c0-2-1.6-3.7-3.7-3.7h-11.3c-2,0-3.7,1.6-3.7,3.7v17.7H223c-2,0-3.7,1.6-3.7,3.7v11.3
					c0,2,1.6,3.7,3.7,3.7h17.7v17.7c0,2,1.6,3.7,3.7,3.7h11.3c2,0,3.7-1.6,3.7-3.7v-17.7h17.7c2,0,3.7-1.6,3.7-3.7v-11.3
					c0-2-1.6-3.7-3.7-3.7H259.4z"/>
			</g>
			<g>
				<g>
					<radialGradient id="SVGID_1_" cx="289.3336" cy="123.8037" r="44.4685" gradientUnits="userSpaceOnUse">
						<stop  offset="0" style="stop-color:#FF77A2"/>
						<stop  offset="0.8537" style="stop-color:#E81D62"/>
						<stop  offset="0.9153" style="stop-color:#E9296A"/>
						<stop  offset="1" style="stop-color:#EB407A"/>
					</radialGradient>
					<path class="st5" d="M305.4,161.7c-8.7,8.7-22.9,8.7-31.6,0c-8.7-8.7-8.7-22.9,0-31.6c8.7-8.7,22.9-8.7,31.6,0
						C314.1,138.9,314.1,153,305.4,161.7z"/>
					<radialGradient id="SVGID_2_" cx="210.8443" cy="202.4356" r="44.4354" gradientUnits="userSpaceOnUse">
						<stop  offset="0" style="stop-color:#5EC3F8"/>
						<stop  offset="0.8537" style="stop-color:#2884F5"/>
						<stop  offset="0.9102" style="stop-color:#348FF6"/>
						<stop  offset="1" style="stop-color:#4FA7F7"/>
					</radialGradient>
					<path class="st6" d="M226.8,240.3c-8.7,8.7-22.9,8.7-31.6,0c-8.7-8.7-8.7-22.9,0-31.6c8.7-8.7,22.9-8.7,31.6,0
						C235.5,217.4,235.5,231.6,226.8,240.3z"/>
				</g>
				<g>
					<radialGradient id="SVGID_3_" cx="289.4571" cy="202.1716" r="44.6599" gradientUnits="userSpaceOnUse">
						<stop  offset="0" style="stop-color:#FFE082"/>
						<stop  offset="0.8537" style="stop-color:#FEC007"/>
						<stop  offset="0.9182" style="stop-color:#FEC313"/>
						<stop  offset="1" style="stop-color:#FEC928"/>
					</radialGradient>
					<circle class="st7" cx="289.6" cy="224.5" r="22.3"/>
					<radialGradient id="SVGID_4_" cx="210.4042" cy="123.7447" r="44.3863" gradientUnits="userSpaceOnUse">
						<stop  offset="0" style="stop-color:#80D870"/>
						<stop  offset="0.8537" style="stop-color:#349C3B"/>
						<stop  offset="0.9233" style="stop-color:#3EA841"/>
						<stop  offset="1" style="stop-color:#4EBA4A"/>
					</radialGradient>
					<path class="st8" d="M195.2,161.7c-8.7-8.7-8.7-22.9,0-31.6s22.9-8.7,31.6,0c8.7,8.7,8.7,22.9,0,31.6
						C218.1,170.5,203.9,170.5,195.2,161.7z"/>
				</g>
			</g>
			<radialGradient id="SVGID_5_" cx="209.5859" cy="193.6398" r="78.2095" gradientUnits="userSpaceOnUse">
				<stop  offset="0" style="stop-color:#0000FF"/>
				<stop  offset="1" style="stop-color:#0000FF;stop-opacity:0"/>
			</radialGradient>
			<path class="st9" d="M158.3,141v2c0,27.5,22.4,49.9,49.9,49.9h1.5v-16.2h-1.5c-18.6,0-33.7-15.1-33.7-33.7v-2
				c0-9,3.6-17.2,9.4-23.3l-11.5-11.5C163.7,115.3,158.3,127.5,158.3,141z"/>
			<radialGradient id="SVGID_6_" cx="258.9412" cy="146.9669" r="71.782" gradientUnits="userSpaceOnUse">
				<stop  offset="0" style="stop-color:#21DAFF"/>
				<stop  offset="0.2096" style="stop-color:#21E5FF;stop-opacity:0.7904"/>
				<stop  offset="0.6766" style="stop-color:#21F8FF;stop-opacity:0.3234"/>
				<stop  offset="1" style="stop-color:#21FFFF;stop-opacity:0"/>
			</radialGradient>
			<path class="st10" d="M258.1,146.7V141c0-27.5-22.4-49.9-49.9-49.9c-14,0-26.7,5.8-35.8,15.2l11.5,11.5
				c6.1-6.4,14.8-10.4,24.3-10.4c18.6,0,33.7,15.1,33.7,33.7v5.6H258.1z"/>
			<radialGradient id="SVGID_7_" cx="241.774" cy="146.6987" r="73.4084" gradientUnits="userSpaceOnUse">
				<stop  offset="0" style="stop-color:#FFC100"/>
				<stop  offset="9.457809e-02" style="stop-color:#FFC200;stop-opacity:0.9054"/>
				<stop  offset="1" style="stop-color:#FFC900;stop-opacity:0"/>
			</radialGradient>
			<path class="st11" d="M291.9,91.3c-27.5,0-49.9,22.4-49.9,49.9v5.6h16.2v-5.6c0-18.6,15.1-33.7,33.7-33.7
				c9.4,0,17.9,3.9,24.1,10.2l11.5-11.5C318.3,97,305.7,91.3,291.9,91.3z"/>
			
				<radialGradient id="SVGID_8_" cx="291.8839" cy="176.6067" r="52.2053" gradientTransform="matrix(1.1372 0 0 1 -40.1668 0)" gradientUnits="userSpaceOnUse">
				<stop  offset="0" style="stop-color:#0000FF"/>
				<stop  offset="1" style="stop-color:#0000FF;stop-opacity:0"/>
			</radialGradient>
			<rect x="290.2" y="176.8" class="st12" width="77.2" height="16.2"/>
			<radialGradient id="SVGID_9_" cx="209.796" cy="176.4438" r="58.3815" gradientUnits="userSpaceOnUse">
				<stop  offset="0" style="stop-color:#00FF00"/>
				<stop  offset="8.319575e-02" style="stop-color:#00FF00;stop-opacity:0.9168"/>
				<stop  offset="1" style="stop-color:#00FF00;stop-opacity:0"/>
			</radialGradient>
			<rect x="132.6" y="176.8" class="st13" width="77.2" height="16.2"/>
			<radialGradient id="SVGID_10_" cx="288.9834" cy="192.8351" r="79.2834" gradientUnits="userSpaceOnUse">
				<stop  offset="0" style="stop-color:#FF00FF"/>
				<stop  offset="2.851313e-02" style="stop-color:#FF00FF;stop-opacity:0.9715"/>
				<stop  offset="1" style="stop-color:#FF00FF;stop-opacity:0"/>
			</radialGradient>
			<path class="st14" d="M315.9,117.6c5.9,6.1,9.6,14.4,9.6,23.5v2c0,18.6-15.1,33.7-33.7,33.7h-1.5v16.2h1.5
				c27.5,0,49.9-22.4,49.9-49.9v-2c0-13.6-5.5-26-14.4-35L315.9,117.6z"/>
			<radialGradient id="SVGID_11_" cx="210.0504" cy="175.4289" r="78.9061" gradientUnits="userSpaceOnUse">
				<stop  offset="0" style="stop-color:#FF00FF"/>
				<stop  offset="2.851313e-02" style="stop-color:#FF00FF;stop-opacity:0.9715"/>
				<stop  offset="1" style="stop-color:#FF00FF;stop-opacity:0"/>
			</radialGradient>
			<path class="st15" d="M174.6,228.9v-2c0-18.6,15.1-33.7,33.7-33.7h1.5v-16.2h-1.5c-27.5,0-49.9,22.4-49.9,49.9v2
				c0,13,5,24.9,13.2,33.8l11.5-11.5C177.8,245.2,174.6,237.4,174.6,228.9z"/>
			<radialGradient id="SVGID_12_" cx="258.0619" cy="222.6844" r="77.4251" gradientUnits="userSpaceOnUse">
				<stop  offset="0" style="stop-color:#00FF00"/>
				<stop  offset="1" style="stop-color:#00FF00;stop-opacity:0"/>
			</radialGradient>
			<path class="st16" d="M241.9,223.2v5.6c0,18.6-15.1,33.7-33.7,33.7c-10,0-19-4.4-25.2-11.3l-11.5,11.5
				c9.1,9.9,22.2,16.1,36.6,16.1c27.5,0,49.9-22.4,49.9-49.9v-5.6H241.9z"/>
			<radialGradient id="SVGID_13_" cx="291.3297" cy="175.807" r="76.2942" gradientUnits="userSpaceOnUse">
				<stop  offset="0" style="stop-color:#21DAFF"/>
				<stop  offset="0.2096" style="stop-color:#21E5FF;stop-opacity:0.7904"/>
				<stop  offset="0.6766" style="stop-color:#21F8FF;stop-opacity:0.3234"/>
				<stop  offset="1" style="stop-color:#21FFFF;stop-opacity:0"/>
			</radialGradient>
			<path class="st17" d="M341.7,228.8v-2c0-27.5-22.4-49.9-49.9-49.9h-1.5v16.2h1.5c18.6,0,33.7,15.1,33.7,33.7v2
				c0,8.4-3.1,16.2-8.3,22.1l11.5,11.5C336.8,253.5,341.7,241.7,341.7,228.8z"/>
			<radialGradient id="SVGID_14_" cx="243.3182" cy="222.6844" r="76.2282" gradientUnits="userSpaceOnUse">
				<stop  offset="0" style="stop-color:#FFD600"/>
				<stop  offset="0.3546" style="stop-color:#FFBE00;stop-opacity:0.6454"/>
				<stop  offset="0.7359" style="stop-color:#FFAB00;stop-opacity:0.2641"/>
				<stop  offset="1" style="stop-color:#FFA400;stop-opacity:0"/>
			</radialGradient>
			<path class="st18" d="M317.2,250.9c-6.2,7.1-15.3,11.6-25.4,11.6c-18.6,0-33.7-15.1-33.7-33.7v-5.6H242v5.6
				c0,27.5,22.4,49.9,49.9,49.9c14.6,0,27.7-6.3,36.9-16.3L317.2,250.9z"/>
			<path class="st19" d="M210,134.3l-10.3,17.9c-0.4,0.7,0.1,1.6,0.9,1.6h20.7c0.8,0,1.3-0.9,0.9-1.6l-10.3-17.9
				C211.4,133.5,210.4,133.5,210,134.3z"/>
			<rect x="280.3" y="136.9" class="st20" width="18.4" height="18.4"/>
			<circle class="st20" cx="210.9" cy="224.5" r="11.1"/>
			<g>
				<line class="st20" x1="279.4" y1="215.1" x2="299.1" y2="234.7"/>
				<line class="st20" x1="299.1" y1="215.1" x2="279.4" y2="234.7"/>
			</g>
			<g>
				<radialGradient id="SVGID_15_" cx="250.4718" cy="154.2057" r="61.4626" gradientUnits="userSpaceOnUse">
					<stop  offset="0" style="stop-color:#999999"/>
					<stop  offset="0.7137" style="stop-color:#4D4D4D"/>
					<stop  offset="0.7789" style="stop-color:#595959"/>
					<stop  offset="0.8955" style="stop-color:#787878"/>
					<stop  offset="1" style="stop-color:#999999"/>
				</radialGradient>
				<path class="st21" d="M259.4,175.5v-17.7c0-2-1.6-3.7-3.7-3.7h-11.3c-2,0-3.7,1.6-3.7,3.7v17.7H223c-2,0-3.7,1.6-3.7,3.7v11.3
					c0,2,1.6,3.7,3.7,3.7h17.7v17.7c0,2,1.6,3.7,3.7,3.7h11.3c2,0,3.7-1.6,3.7-3.7v-17.7h17.7c2,0,3.7-1.6,3.7-3.7v-11.3
					c0-2-1.6-3.7-3.7-3.7H259.4z"/>
			</g>
		</g>
		<g>
			<g>
				<g>
					<polygon class="st22" points="270.4,188.5 274,184.9 270.4,181.3 					"/>
					<polygon class="st22" points="229.3,188.5 225.7,184.9 229.3,181.3 					"/>
				</g>
			</g>
			<g>
				<g>
					<polygon class="st22" points="246.2,205.4 249.8,209 253.4,205.4 					"/>
					<polygon class="st22" points="246.2,164.3 249.8,160.7 253.4,164.3 					"/>
				</g>
			</g>
		</g>
	</g>
</g>
<g id="Designed_by_Freepik">
</g>
</svg>
